<?xml version="1.0" encoding="UTF-8" standalone="no"?>
<!-- Created with Inkscape (http://www.inkscape.org/) -->

<svg
   width="210mm"
   height="297mm"
   viewBox="0 0 210 297"
   version="1.1"
   id="svg1"
   xml:space="preserve"
   inkscape:export-filename="bitmapa.svg"
   inkscape:export-xdpi="96"
   inkscape:export-ydpi="96"
   xmlns:inkscape="http://www.inkscape.org/namespaces/inkscape"
   xmlns:sodipodi="http://sodipodi.sourceforge.net/DTD/sodipodi-0.dtd"
   xmlns="http://www.w3.org/2000/svg"
   xmlns:svg="http://www.w3.org/2000/svg"><sodipodi:namedview
     id="namedview1"
     pagecolor="#ffffff"
     bordercolor="#000000"
     borderopacity="0.34117647"
     inkscape:showpageshadow="2"
     inkscape:pageopacity="0.0"
     inkscape:pagecheckerboard="true"
     inkscape:deskcolor="#d1d1d1"
     inkscape:document-units="mm"
     labelstyle="below" /><defs
     id="defs1"><style
       id="style1">.cls-1{fill:#443878;}.cls-2{fill:#f7e1ef;}</style><style
       id="style1-3">.cls-1{fill:#443878;}.cls-2{fill:#f7e1ef;}</style></defs><g
     inkscape:label="Vrstva 1"
     inkscape:groupmode="layer"
     id="layer1"><g
       id="g1"
       transform="matrix(0.26458333,0,0,0.26458333,26.158062,37.124968)"><path
         class="cls-2"
         d="m 188.13,399 c 0,-49.81 43.5,-87.91 94.67,-87.41 51.42,0.51 93.21,40 92.76,87.59 a 84.78,84.78 0 0 1 -21.37,55.38 c 5.71,0.27 11.56,-0.6 17.3,-0.59 a 5.57,5.57 0 0 1 1.33,0.16 94.51,94.51 0 0 0 17.5,-55.59 c -0.61,-56.51 -49.16,-100.92 -108.73,-100.71 -61.74,0.22 -108.58,47 -108.18,101.82 a 96,96 0 0 0 18,55.1 5.16,5.16 0 0 1 1.47,-0.21 h 16.46 A 83.39,83.39 0 0 1 188.13,399 Z"
         id="path1" /><path
         class="cls-2"
         d="m 533.42,265.58 c -0.71,3 -1.37,5.95 -2.14,8.9 -7.8,29.89 -36.1,50 -67.8,48.64 -35.59,-1.47 -65.84,-31.5 -63.37,-69.28 2.07,-31.59 28.51,-57.33 61.11,-60 35.77,-3 67,22.51 71.5,55.34 a 6.16,6.16 0 0 0 0.7,1.53 z M 415.6,258.53 c 0.17,27.67 23.23,49.79 51.71,49.61 C 495,308 517.87,285.56 518,258.47 518.08,231 494.82,208.6 466.39,208.78 438.23,209 415.43,231.31 415.6,258.53 Z"
         id="path2" /><path
         class="cls-2"
         d="m 463.3,290.68 c -22.17,-0.5 -41.25,-19.44 -41.25,-40.93 0,-4.73 3.1,-8.19 7.47,-8.35 4.37,-0.16 7.55,3 8,7.9 1.36,13.61 8.37,22.08 21.19,25.44 2.08,0.55 4.31,0.51 6.44,0.9 5.53,1 8,3.9 7.39,8.58 -0.48,4.13 -3.99,6.58 -9.24,6.46 z"
         id="path3" /><path
         class="cls-2"
         d="m 364.41,399.08 a 22.09,22.09 0 0 1 -0.66,4.95 7.39,7.39 0 0 1 -8,4.59 c -3.93,-0.6 -6.42,-3.13 -6.65,-7.16 -0.47,-8.39 -1.85,-16.58 -5.93,-24.09 C 333,358.81 317.32,348.44 295.58,347 a 22.4,22.4 0 0 1 -6,-1 7.2,7.2 0 0 1 -4.3,-8.42 c 0.76,-3.48 4.09,-5.95 8.44,-5.82 19.71,0.63 36.73,7.5 50.5,21.31 12.58,12.58 19.18,27.83 20.19,46.01 z"
         id="path4" /><rect
         class="cls-2"
         x="208.78999"
         y="506.48001"
         width="145.53"
         height="4.21"
         id="rect5" /><path
         class="cls-2"
         d="m 76.05,475.38 v 12 l 1.11,1.76 h 1.58 l 1.15,-1.8 v -21.3 a 1.73,1.73 0 0 1 0.58,-1.3 1.92,1.92 0 0 1 1.36,-0.54 1.88,1.88 0 0 1 1.33,0.53 1.69,1.69 0 0 1 0.57,1.27 v 21.92 a 2.32,2.32 0 0 1 -0.48,1.13 l -1.76,2.78 a 1.79,1.79 0 0 1 -1.64,0.92 h -3.57 a 2,2 0 0 1 -2.17,-1.46 2,2 0 0 1 -2.11,1.47 h -3.3 a 2.26,2.26 0 0 1 -2.08,-1 L 65,489.15 a 2.33,2.33 0 0 1 -0.46,-1.22 v -21.88 a 1.76,1.76 0 0 1 0.58,-1.3 1.92,1.92 0 0 1 1.36,-0.54 1.8,1.8 0 0 1 1.3,0.54 1.78,1.78 0 0 1 0.56,1.3 v 21.38 l 1.1,1.72 h 1.63 l 1.19,-1.8 v -12 a 1.71,1.71 0 0 1 0.56,-1.28 2,2 0 0 1 2.68,0 1.7,1.7 0 0 1 0.55,1.31 z"
         id="path5" /><path
         class="cls-2"
         d="M 109.71,467.86 H 96.3 v 8.79 h 5.78 a 1.9,1.9 0 0 1 1.33,0.53 1.68,1.68 0 0 1 0.56,1.27 1.74,1.74 0 0 1 -0.55,1.31 1.86,1.86 0 0 1 -1.34,0.54 H 96.3 v 8.85 h 13.45 a 1.88,1.88 0 0 1 1.33,0.53 1.66,1.66 0 0 1 0.57,1.27 1.64,1.64 0 0 1 -0.58,1.28 2,2 0 0 1 -1.36,0.53 h -17.2 v -28.55 h 17.2 a 1.92,1.92 0 0 1 1.36,0.54 1.73,1.73 0 0 1 0.58,1.3 1.67,1.67 0 0 1 -0.58,1.27 1.92,1.92 0 0 1 -1.36,0.54 z"
         id="path6" /><path
         class="cls-2"
         d="M 120.43,492.76 V 466 a 1.72,1.72 0 0 1 0.56,-1.27 1.9,1.9 0 0 1 1.33,-0.53 1.92,1.92 0 0 1 1.34,0.53 1.72,1.72 0 0 1 0.56,1.27 v 23.14 h 13.41 a 2,2 0 0 1 1.36,0.53 1.69,1.69 0 0 1 0,2.55 2,2 0 0 1 -1.36,0.53 z"
         id="path7" /><path
         class="cls-2"
         d="M 148.35,492.76 V 466 a 1.72,1.72 0 0 1 0.56,-1.27 1.93,1.93 0 0 1 2.66,0 1.69,1.69 0 0 1 0.57,1.27 v 23.14 h 13.41 a 2,2 0 0 1 1.36,0.53 1.69,1.69 0 0 1 0,2.55 2,2 0 0 1 -1.36,0.53 z"
         id="path8" /><path
         class="cls-2"
         d="m 195.36,466.05 v 26.71 h -5.08 L 180.06,470.59 V 491 a 1.72,1.72 0 0 1 -0.55,1.28 2,2 0 0 1 -2.69,0 1.68,1.68 0 0 1 -0.55,-1.28 v -26.79 h 5 l 10.24,22.13 v -20.29 a 1.76,1.76 0 0 1 0.58,-1.3 1.93,1.93 0 0 1 1.37,-0.54 1.89,1.89 0 0 1 1.34,0.53 1.76,1.76 0 0 1 0.56,1.31 z"
         id="path9" /><path
         class="cls-2"
         d="M 221.39,467.86 H 208 v 8.79 h 5.78 a 1.9,1.9 0 0 1 1.33,0.53 1.72,1.72 0 0 1 0.56,1.27 1.74,1.74 0 0 1 -0.55,1.31 1.86,1.86 0 0 1 -1.34,0.54 H 208 v 8.85 h 13.45 a 1.88,1.88 0 0 1 1.33,0.53 1.7,1.7 0 0 1 0,2.55 2,2 0 0 1 -1.36,0.53 h -17.2 v -28.55 h 17.2 a 1.92,1.92 0 0 1 1.36,0.54 1.76,1.76 0 0 1 0.58,1.3 1.7,1.7 0 0 1 -0.58,1.27 1.92,1.92 0 0 1 -1.39,0.54 z"
         id="path10" /><path
         class="cls-2"
         d="m 236.38,464.21 h 9.87 a 5,5 0 0 1 3.42,1.45 4.52,4.52 0 0 1 1.62,3.51 1.74,1.74 0 0 1 -0.57,1.31 1.84,1.84 0 0 1 -1.28,0.54 1.69,1.69 0 0 1 -1.33,-0.42 4.44,4.44 0 0 1 -0.69,-1.56 1.41,1.41 0 0 0 -1.42,-1.14 h -9.38 c -0.46,0 -0.68,0.14 -0.68,0.42 a 0.9,0.9 0 0 0 0.27,0.6 L 250.27,486 a 4.11,4.11 0 0 1 1,2.66 3.87,3.87 0 0 1 -1.23,2.83 3.79,3.79 0 0 1 -2.74,1.23 h -10.21 a 4.88,4.88 0 0 1 -3.53,-1.47 4.46,4.46 0 0 1 -1.5,-3.24 1.77,1.77 0 0 1 2,-2 1.82,1.82 0 0 1 1.31,0.53 1.67,1.67 0 0 1 0.54,1.24 1.24,1.24 0 0 0 0.42,1 1.45,1.45 0 0 0 1.05,0.39 h 9.43 c 0.41,0 0.61,-0.15 0.61,-0.46 a 0.86,0.86 0 0 0 -0.28,-0.56 L 233.06,471 a 4.13,4.13 0 0 1 -1,-2.67 3.94,3.94 0 0 1 1.27,-2.91 4.21,4.21 0 0 1 3.05,-1.21 z"
         id="path11" /><path
         class="cls-2"
         d="m 264.3,464.21 h 9.87 a 5,5 0 0 1 3.42,1.45 4.52,4.52 0 0 1 1.62,3.51 1.72,1.72 0 0 1 -0.58,1.31 1.8,1.8 0 0 1 -1.27,0.54 1.69,1.69 0 0 1 -1.33,-0.42 4.44,4.44 0 0 1 -0.69,-1.56 1.41,1.41 0 0 0 -1.46,-1.14 h -9.38 c -0.46,0 -0.68,0.14 -0.68,0.42 a 0.9,0.9 0 0 0 0.27,0.6 l 14.1,17.08 a 4.11,4.11 0 0 1 1,2.66 3.87,3.87 0 0 1 -1.23,2.83 3.79,3.79 0 0 1 -2.74,1.23 H 265 a 4.88,4.88 0 0 1 -3.53,-1.47 4.46,4.46 0 0 1 -1.5,-3.24 1.77,1.77 0 0 1 2,-2 1.84,1.84 0 0 1 1.31,0.53 1.67,1.67 0 0 1 0.54,1.24 1.27,1.27 0 0 0 0.41,1 1.48,1.48 0 0 0 1,0.39 h 9.44 c 0.4,0 0.61,-0.15 0.61,-0.46 A 0.86,0.86 0 0 0 275,488.15 L 261,471 a 4.13,4.13 0 0 1 -1,-2.67 3.94,3.94 0 0 1 1.27,-2.91 4.21,4.21 0 0 1 3.03,-1.21 z"
         id="path12" /><path
         class="cls-2"
         d="m 335,483.91 v 1.59 a 6.85,6.85 0 0 1 -2.22,5.12 7.45,7.45 0 0 1 -5.36,2.14 h -11.65 v -28.55 h 11.61 a 7.52,7.52 0 0 1 5.36,2.12 6.86,6.86 0 0 1 2.22,5.14 V 473 a 7,7 0 0 1 -2.6,5.46 7.07,7.07 0 0 1 2.64,5.45 z m -3.88,-11 v -1.48 a 3.48,3.48 0 0 0 -1.12,-2.58 3.72,3.72 0 0 0 -2.67,-1.07 h -7.72 v 8.74 h 7.72 a 3.74,3.74 0 0 0 2.67,-1.02 3.39,3.39 0 0 0 1.08,-2.5 z m 0,12.55 V 484 a 3.45,3.45 0 0 0 -1.12,-2.57 3.72,3.72 0 0 0 -2.67,-1.08 h -7.68 v 8.77 h 7.68 A 3.75,3.75 0 0 0 330,488 a 3.37,3.37 0 0 0 1.08,-2.5 z"
         id="path13" /><path
         class="cls-2"
         d="m 343.74,487.35 v -21.3 a 1.78,1.78 0 0 1 0.56,-1.3 1.87,1.87 0 0 1 1.33,-0.54 1.91,1.91 0 0 1 1.34,0.53 1.72,1.72 0 0 1 0.56,1.27 v 21.34 a 1.62,1.62 0 0 0 0.57,1.23 1.88,1.88 0 0 0 1.33,0.53 h 7.76 a 1.89,1.89 0 0 0 1.34,-0.52 1.64,1.64 0 0 0 0.56,-1.24 v -21.3 a 1.76,1.76 0 0 1 0.55,-1.31 2,2 0 0 1 2.69,0 1.8,1.8 0 0 1 0.55,1.31 v 21.25 a 5.16,5.16 0 0 1 -1.68,3.85 5.61,5.61 0 0 1 -4,1.61 h -7.76 a 5.61,5.61 0 0 1 -4,-1.59 5.09,5.09 0 0 1 -1.7,-3.82 z"
         id="path14" /><path
         class="cls-2"
         d="m 390.8,483.91 v 1.59 a 6.82,6.82 0 0 1 -2.23,5.12 7.42,7.42 0 0 1 -5.36,2.14 h -11.6 v -28.55 h 11.6 a 7.48,7.48 0 0 1 5.36,2.12 6.83,6.83 0 0 1 2.23,5.14 V 473 a 7,7 0 0 1 -2.6,5.46 7.07,7.07 0 0 1 2.6,5.45 z m -3.88,-11 v -1.48 a 3.48,3.48 0 0 0 -1.12,-2.58 3.72,3.72 0 0 0 -2.68,-1.07 h -7.71 v 8.74 h 7.71 a 3.76,3.76 0 0 0 2.67,-1.06 3.39,3.39 0 0 0 1.13,-2.46 z m 0,12.55 V 484 a 3.45,3.45 0 0 0 -1.12,-2.57 3.73,3.73 0 0 0 -2.68,-1.08 h -7.67 v 8.77 h 7.67 a 3.77,3.77 0 0 0 2.67,-1.07 3.37,3.37 0 0 0 1.13,-2.55 z"
         id="path15" /><path
         class="cls-2"
         d="M 399.62,492.76 V 466 a 1.69,1.69 0 0 1 0.57,-1.27 1.93,1.93 0 0 1 2.66,0 1.69,1.69 0 0 1 0.57,1.27 v 23.14 h 13.4 a 2,2 0 0 1 1.37,0.53 1.71,1.71 0 0 1 0,2.55 2,2 0 0 1 -1.37,0.53 z"
         id="path16" /><path
         class="cls-2"
         d="m 429.39,464.21 h 15.35 a 1.89,1.89 0 0 1 1.32,0.53 1.7,1.7 0 0 1 0.58,1.27 1.74,1.74 0 0 1 -0.57,1.3 1.82,1.82 0 0 1 -1.33,0.55 H 439 v 21.29 h 5.73 a 1.87,1.87 0 0 1 1.34,0.53 1.68,1.68 0 0 1 0.56,1.27 1.66,1.66 0 0 1 -0.57,1.28 1.88,1.88 0 0 1 -1.33,0.53 h -15.34 a 1.89,1.89 0 0 1 -1.34,-0.53 1.75,1.75 0 0 1 0,-2.55 1.89,1.89 0 0 1 1.34,-0.53 h 5.83 v -21.29 h -5.83 a 1.86,1.86 0 0 1 -1.34,-0.54 1.71,1.71 0 0 1 -0.55,-1.27 1.76,1.76 0 0 1 0.55,-1.31 1.89,1.89 0 0 1 1.34,-0.53 z"
         id="path17" /><path
         class="cls-2"
         d="m 474.56,466.05 v 26.71 h -5.09 L 459.25,470.59 V 491 a 1.68,1.68 0 0 1 -0.55,1.28 2,2 0 0 1 -2.69,0 1.72,1.72 0 0 1 -0.55,-1.28 v -26.79 h 5 l 10.25,22.13 v -20.29 a 1.75,1.75 0 0 1 0.57,-1.3 1.94,1.94 0 0 1 1.37,-0.54 1.87,1.87 0 0 1 1.34,0.53 1.77,1.77 0 0 1 0.57,1.31 z"
         id="path18" /><path
         class="cls-2"
         d="m 483.34,491 v -24.9 a 1.76,1.76 0 0 1 0.55,-1.31 2,2 0 0 1 2.69,0 1.73,1.73 0 0 1 0.55,1.28 v 8.54 l 12.14,-9.87 a 2.12,2.12 0 0 1 1.42,-0.47 1.77,1.77 0 0 1 1.33,0.55 1.74,1.74 0 0 1 0.55,1.27 1.6,1.6 0 0 1 -0.62,1.24 L 488.19,478.4 502,489.72 a 1.41,1.41 0 0 1 0.56,1.17 1.93,1.93 0 0 1 -1.92,1.87 2.09,2.09 0 0 1 -1.37,-0.49 l -12.1,-9.92 V 491 a 1.71,1.71 0 0 1 -0.55,1.27 2,2 0 0 1 -2.68,0 1.66,1.66 0 0 1 -0.6,-1.27 z"
         id="path19" /><path
         class="cls-2"
         d="m 511.41,490.25 7.64,-24.7 a 1.83,1.83 0 0 1 1.91,-1.34 1.66,1.66 0 0 1 1.79,1.14 l 7.56,25.07 a 1.69,1.69 0 0 1 0.09,0.53 1.85,1.85 0 0 1 -1.79,1.81 1.78,1.78 0 0 1 -1.89,-1.31 l -1.5,-4.9 h -8.68 l -1.65,5.25 a 1.13,1.13 0 0 1 -0.57,0.65 2,2 0 0 1 -1.09,0.31 1.87,1.87 0 0 1 -1.38,-0.54 1.74,1.74 0 0 1 -0.55,-1.31 2.28,2.28 0 0 1 0.11,-0.66 z m 9.53,-17.69 -3.25,10.34 h 6.41 z"
         id="path20" /></g></g></svg>
